IKResults
version=1
nRows=8
nColumns=67
inDegrees=yes

Units are S.I. units (second, meters, Newtons, ...)
Angles are in degrees.

endheader
time	pelvis_tilt	pelvis_list	pelvis_rotation	pelvis_tx	pelvis_ty	pelvis_tz	hip_flexion_r	hip_adduction_r	hip_rotation_r	knee_angle_r	knee_rot_r	knee_adduc_r	ankle_angle_r	ankle_rot_r	ankle_add_r	subtalar_angle_r	mtp_angle_r	mtp_rot_r	mtp_add_r	hip_flexion_l	hip_adduction_l	hip_rotation_l	knee_angle_l	knee_rot_l	knee_adduc_l	ankle_angle_l	ankle_rot_l	ankle_add_l	subtalar_angle_l	mtp_angle_l	mtp_rot_l	mtp_add_l	lumbar_extension	lumbar_bending	lumbar_rotation	neck_flexion	neck_lateral_bending	neck_rotation	arm_flex_r	arm_add_r	arm_rot_r	elbow_flex_r	elbow_rot_r	elbow_add_r	pro_sup_r	wrist_flex_r	wrist_adduc_r	wrist_rot_r	wrist_dev_r	hand_finger_flex_r	hand_finger_adduc_r	hand_finger_rot_r	arm_flex_l	arm_add_l	arm_rot_l	elbow_flex_l	elbow_rot_l	elbow_add_l	pro_sup_l	wrist_flex_l	wrist_adduc_l	wrist_rot_l	wrist_dev_l	hand_finger_flex_l	hand_finger_adduc_l	hand_finger_rot_l
      6.74500000	      2.14204781	    -13.87798739	     21.02197227	      0.18221110	      0.60433352	      0.87614703	     29.91057059	      4.57795337	    -14.53597112	    -46.84469573	     -5.00000000	     -2.03835461	     19.69250298	     -4.46280776	     -1.95982939	    -26.60305922	     -2.37824905	     -2.00000000	      2.00000000	     17.18818353	    -11.80613848	     27.69508167	    -63.98735745	      5.00000000	      4.37057094	     17.65889820	      5.00000000	      2.96240156	    -18.51366003	      1.60569111	      2.00000000	     -2.00000000	     -7.57700832	     17.44934267	     -2.42604805	      0.00000000	      0.00000000	      0.00000000	      0.00000000	      0.00000000	      0.00000000	      0.00000000	      0.00000000	      0.00000000	     -0.00042092	      0.00000000	      0.00000000	      0.00000000	      0.00000000	      0.00000000	      0.00000000	      0.00000000	      0.00000000	      0.00000000	      0.00000000	      0.00000000	      0.00000000	      0.00000000	      0.00000000	      0.00000000	      0.00000000	      0.00000000	      0.00000000	      0.00000000	      0.00000000	      0.00000000
      6.75000000	      2.45730234	    -14.24787568	     20.68075991	      0.18616460	      0.60369121	      0.87743382	     29.59483831	      5.49667355	    -14.17751285	    -47.11984100	     -5.00000000	     -1.93423778	     20.33408707	     -4.68711264	     -2.29992759	    -26.98980152	     -2.35995243	     -2.00000000	      2.00000000	     17.28157116	    -12.28526125	     27.79006300	    -65.12617961	      5.00000000	      4.09647182	     15.84800195	      5.00000000	      3.22847617	    -18.68288410	      1.74947988	      2.00000000	     -2.00000000	     -7.67779306	     17.95492068	     -2.10541780	      0.00000000	      0.00000000	      0.00000000	      0.00000000	      0.00000000	      0.00000000	      0.00000000	      0.00000000	      0.00000000	     -0.00042092	      0.00000000	      0.00000000	      0.00000000	      0.00000000	      0.00000000	      0.00000000	      0.00000000	      0.00000000	      0.00000000	      0.00000000	      0.00000000	      0.00000000	      0.00000000	      0.00000000	      0.00000000	      0.00000000	      0.00000000	      0.00000000	      0.00000000	      0.00000000	      0.00000000
      6.75500000	      2.56923415	    -14.22816577	     20.46086922	      0.19013892	      0.60308149	      0.87797589	     29.29928255	      5.81262583	    -14.09335245	    -47.45300423	     -5.00000000	     -2.06614495	     20.37458496	     -4.69846917	     -2.31945586	    -27.00614673	     -2.36241607	     -2.00000000	      2.00000000	     17.29762959	    -12.10883593	     27.70023050	    -66.06305923	      5.00000000	      4.09508212	     15.74227027	      5.00000000	      3.26360320	    -18.73225099	      1.77024718	      2.00000000	     -2.00000000	     -7.56868156	     18.08674701	     -2.30025717	      0.00000000	      0.00000000	      0.00000000	      0.00000000	      0.00000000	      0.00000000	      0.00000000	      0.00000000	      0.00000000	     -0.00042092	      0.00000000	      0.00000000	      0.00000000	      0.00000000	      0.00000000	      0.00000000	      0.00000000	      0.00000000	      0.00000000	      0.00000000	      0.00000000	      0.00000000	      0.00000000	      0.00000000	      0.00000000	      0.00000000	      0.00000000	      0.00000000	      0.00000000	      0.00000000	      0.00000000
      6.76000000	      2.77227826	    -14.30139434	     20.26097670	      0.19332970	      0.60239421	      0.87900948	     29.10882963	      6.19813966	    -13.99546374	    -47.93660973	     -5.00000000	     -2.03920867	     20.59645608	     -4.70404578	     -2.39714647	    -27.07913665	     -2.35924092	     -2.00000000	      2.00000000	     17.50932874	    -12.14754810	     27.62322138	    -67.13604076	      5.00000000	      4.00276897	     15.26336456	      5.00000000	      3.31956350	    -18.78394516	      1.80261740	      2.00000000	     -2.00000000	     -7.74301514	     18.26458464	     -2.23607276	      0.00000000	      0.00000000	      0.00000000	      0.00000000	      0.00000000	      0.00000000	      0.00000000	      0.00000000	      0.00000000	     -0.00042092	      0.00000000	      0.00000000	      0.00000000	      0.00000000	      0.00000000	      0.00000000	      0.00000000	      0.00000000	      0.00000000	      0.00000000	      0.00000000	      0.00000000	      0.00000000	      0.00000000	      0.00000000	      0.00000000	      0.00000000	      0.00000000	      0.00000000	      0.00000000	      0.00000000
      6.76500000	      2.83853986	    -14.27542970	     20.11484578	      0.19778125	      0.60204866	      0.87975511	     28.74050001	      6.43926953	    -14.00693711	    -48.16606016	     -5.00000000	     -2.03512189	     20.61880510	     -4.70987344	     -2.40401917	    -27.08877683	     -2.35932064	     -2.00000000	      2.00000000	     17.48507979	    -12.05961457	     27.54507888	    -67.77832443	      5.00000000	      3.96701277	     15.21193595	      5.00000000	      3.32442874	    -18.78626033	      1.80581162	      2.00000000	     -2.00000000	     -7.45889713	     18.21231609	     -2.32570427	      0.00000000	      0.00000000	      0.00000000	      0.00000000	      0.00000000	      0.00000000	      0.00000000	      0.00000000	      0.00000000	     -0.00042092	      0.00000000	      0.00000000	      0.00000000	      0.00000000	      0.00000000	      0.00000000	      0.00000000	      0.00000000	      0.00000000	      0.00000000	      0.00000000	      0.00000000	      0.00000000	      0.00000000	      0.00000000	      0.00000000	      0.00000000	      0.00000000	      0.00000000	      0.00000000	      0.00000000
      6.77000000	      3.03499163	    -14.41473303	     19.67767547	      0.20050214	      0.60143881	      0.88056615	     28.61351829	      6.92544838	    -13.68018678	    -48.62303813	     -5.00000000	     -2.01783877	     21.08512081	     -4.65565155	     -2.53561375	    -27.21201519	     -2.34067664	     -2.00000000	      2.00000000	     17.74550404	    -12.17427508	     27.48269173	    -68.89006119	      5.00000000	      3.59048260	     14.36713155	      5.00000000	      3.34385971	    -18.70197529	      1.81319411	      2.00000000	     -2.00000000	     -7.76961428	     18.59165658	     -2.25088952	      0.00000000	      0.00000000	      0.00000000	      0.00000000	      0.00000000	      0.00000000	      0.00000000	      0.00000000	      0.00000000	     -0.00042092	      0.00000000	      0.00000000	      0.00000000	      0.00000000	      0.00000000	      0.00000000	      0.00000000	      0.00000000	      0.00000000	      0.00000000	      0.00000000	      0.00000000	      0.00000000	      0.00000000	      0.00000000	      0.00000000	      0.00000000	      0.00000000	      0.00000000	      0.00000000	      0.00000000
      6.77500000	      3.08302225	    -14.38969632	     19.51204217	      0.20476211	      0.60127008	      0.88124408	     28.23606624	      7.11184183	    -13.71338304	    -48.79073533	     -5.00000000	     -1.97705859	     21.10797977	     -4.65919688	     -2.54055530	    -27.21899929	     -2.34139821	     -2.00000000	      2.00000000	     17.76625109	    -12.09982499	     27.37010300	    -69.43736026	      5.00000000	      3.49676993	     14.32021320	      5.00000000	      3.34877698	    -18.70122913	      1.81564487	      2.00000000	     -2.00000000	     -7.51403620	     18.53975213	     -2.34447573	      0.00000000	      0.00000000	      0.00000000	      0.00000000	      0.00000000	      0.00000000	      0.00000000	      0.00000000	      0.00000000	     -0.00042092	      0.00000000	      0.00000000	      0.00000000	      0.00000000	      0.00000000	      0.00000000	      0.00000000	      0.00000000	      0.00000000	      0.00000000	      0.00000000	      0.00000000	      0.00000000	      0.00000000	      0.00000000	      0.00000000	      0.00000000	      0.00000000	      0.00000000	      0.00000000	      0.00000000
      6.78000000	      3.10195580	    -14.49536663	     18.64328634	      0.20829131	      0.60107189	      0.88217497	     28.04936917	      7.64951996	    -12.94038801	    -48.98761690	     -5.00000000	     -1.77757878	     22.03821734	     -4.43832563	     -2.72310921	    -27.31066000	     -2.34854100	     -2.00000000	      2.00000000	     17.88450013	    -12.32252406	     27.42585223	    -70.26921837	      5.00000000	      2.51064596	     12.84508297	      5.00000000	      3.50838209	    -18.58055844	      1.85908598	      2.00000000	     -2.00000000	     -7.61650639	     18.74337592	     -1.91815994	      0.00000000	      0.00000000	      0.00000000	      0.00000000	      0.00000000	      0.00000000	      0.00000000	      0.00000000	      0.00000000	     -0.00042092	      0.00000000	      0.00000000	      0.00000000	      0.00000000	      0.00000000	      0.00000000	      0.00000000	      0.00000000	      0.00000000	      0.00000000	      0.00000000	      0.00000000	      0.00000000	      0.00000000	      0.00000000	      0.00000000	      0.00000000	      0.00000000	      0.00000000	      0.00000000	      0.00000000
